<svg width="55" height="15" viewBox="0 0 55 15" fill="none" xmlns="http://www.w3.org/2000/svg">
<path d="M-0.00221393 14.7867V0.241227H3.07307V12.2512H9.30887V14.7867H-0.00221393ZM24.1455 7.51395C24.1455 9.10013 23.8449 10.4496 23.2435 11.5623C22.6469 12.6749 21.8325 13.5248 20.8003 14.112C19.7729 14.6944 18.6176 14.9855 17.3344 14.9855C16.0418 14.9855 14.8818 14.692 13.8543 14.1049C12.8269 13.5177 12.0148 12.6678 11.4182 11.5551C10.8216 10.4425 10.5234 9.09539 10.5234 7.51395C10.5234 5.92778 10.8216 4.57835 11.4182 3.46566C12.0148 2.35297 12.8269 1.50543 13.8543 0.923046C14.8818 0.335924 16.0418 0.0423634 17.3344 0.0423634C18.6176 0.0423634 19.7729 0.335924 20.8003 0.923046C21.8325 1.50543 22.6469 2.35297 23.2435 3.46566C23.8449 4.57835 24.1455 5.92778 24.1455 7.51395ZM21.0276 7.51395C21.0276 6.48649 20.8737 5.62002 20.566 4.91452C20.2629 4.20903 19.8344 3.67399 19.2805 3.30941C18.7265 2.94483 18.0778 2.76253 17.3344 2.76253C16.5911 2.76253 15.9424 2.94483 15.3884 3.30941C14.8344 3.67399 14.4036 4.20903 14.0958 4.91452C13.7928 5.62002 13.6413 6.48649 13.6413 7.51395C13.6413 8.54142 13.7928 9.40789 14.0958 10.1134C14.4036 10.8189 14.8344 11.3539 15.3884 11.7185C15.9424 12.0831 16.5911 12.2654 17.3344 12.2654C18.0778 12.2654 18.7265 12.0831 19.2805 11.7185C19.8344 11.3539 20.2629 10.8189 20.566 10.1134C20.8737 9.40789 21.0276 8.54142 21.0276 7.51395ZM36.0685 4.94293C35.969 4.59729 35.8293 4.29189 35.6494 4.02674C35.4695 3.75685 35.2493 3.52958 34.9889 3.34492C34.7332 3.15553 34.4397 3.01111 34.1082 2.91168C33.7815 2.81225 33.4193 2.76253 33.0216 2.76253C32.2782 2.76253 31.6248 2.94719 31.0614 3.31651C30.5026 3.68583 30.067 4.22323 29.7545 4.92873C29.442 5.62948 29.2858 6.48649 29.2858 7.49975C29.2858 8.51301 29.4397 9.37475 29.7474 10.085C30.0552 10.7952 30.4908 11.3373 31.0542 11.7114C31.6177 12.0807 32.2829 12.2654 33.05 12.2654C33.746 12.2654 34.3402 12.1423 34.8327 11.8961C35.3298 11.6451 35.7086 11.2924 35.969 10.8378C36.2342 10.3833 36.3667 9.84587 36.3667 9.2256L36.9917 9.31793H33.2417V7.00259H39.3284V8.83498C39.3284 10.1134 39.0585 11.2119 38.5187 12.1304C37.979 13.0443 37.2356 13.7498 36.2886 14.2469C35.3417 14.7393 34.2574 14.9855 33.0358 14.9855C31.6721 14.9855 30.4742 14.6849 29.442 14.0836C28.4098 13.4775 27.6049 12.6181 27.0273 11.5054C26.4543 10.388 26.1679 9.06225 26.1679 7.52816C26.1679 6.34918 26.3383 5.29805 26.6792 4.37475C27.0249 3.44672 27.5078 2.66074 28.1281 2.0168C28.7484 1.37286 29.4704 0.882799 30.2943 0.546625C31.1182 0.21045 32.0107 0.0423634 32.9719 0.0423634C33.7957 0.0423634 34.5628 0.163102 35.273 0.40458C35.9832 0.641322 36.613 0.977496 37.1622 1.4131C37.7162 1.84871 38.1684 2.36717 38.5187 2.9685C38.8691 3.56509 39.094 4.22323 39.1935 4.94293H36.0685ZM55.0049 7.51395C55.0049 9.10013 54.7042 10.4496 54.1029 11.5623C53.5063 12.6749 52.6919 13.5248 51.6597 14.112C50.6323 14.6944 49.477 14.9855 48.1938 14.9855C46.9012 14.9855 45.7412 14.692 44.7137 14.1049C43.6862 13.5177 42.8742 12.6678 42.2776 11.5551C41.681 10.4425 41.3827 9.09539 41.3827 7.51395C41.3827 5.92778 41.681 4.57835 42.2776 3.46566C42.8742 2.35297 43.6862 1.50543 44.7137 0.923046C45.7412 0.335924 46.9012 0.0423634 48.1938 0.0423634C49.477 0.0423634 50.6323 0.335924 51.6597 0.923046C52.6919 1.50543 53.5063 2.35297 54.1029 3.46566C54.7042 4.57835 55.0049 5.92778 55.0049 7.51395ZM51.887 7.51395C51.887 6.48649 51.7331 5.62002 51.4253 4.91452C51.1223 4.20903 50.6938 3.67399 50.1398 3.30941C49.5859 2.94483 48.9372 2.76253 48.1938 2.76253C47.4504 2.76253 46.8018 2.94483 46.2478 3.30941C45.6938 3.67399 45.2629 4.20903 44.9552 4.91452C44.6521 5.62002 44.5006 6.48649 44.5006 7.51395C44.5006 8.54142 44.6521 9.40789 44.9552 10.1134C45.2629 10.8189 45.6938 11.3539 46.2478 11.7185C46.8018 12.0831 47.4504 12.2654 48.1938 12.2654C48.9372 12.2654 49.5859 12.0831 50.1398 11.7185C50.6938 11.3539 51.1223 10.8189 51.4253 10.1134C51.7331 9.40789 51.887 8.54142 51.887 7.51395Z" fill="white"/>
</svg>
